<?xml version="1.0" encoding="UTF-8"?>
<svg width="33px" height="32px" viewBox="0 0 33 32" version="1.1" xmlns="http://www.w3.org/2000/svg" xmlns:xlink="http://www.w3.org/1999/xlink">
    <title>编组@1x</title>
    <g id="页面-1" stroke="none" stroke-width="1" fill="none" fill-rule="evenodd">
        <g id="编组">
            <rect id="矩形" fill="#000000" x="0" y="0" width="33" height="32" rx="8"></rect>
            <path d="M13.209116,24.8220994 C13.4825967,24.8220994 13.7332873,24.720442 13.9611878,24.5171271 C14.1890884,24.3138122 14.3121547,24.0088398 14.3303867,23.6022099 C14.3121547,22.9303867 14.3030387,22.1701657 14.3030387,21.321547 L14.3030387,21.321547 L14.3030387,19.040884 C14.7041436,19.0939227 15.1052486,19.1381215 15.5063536,19.1734807 C15.9074586,19.2088398 16.3176796,19.2265193 16.7370166,19.2265193 C16.9375691,19.2265193 17.1517956,19.2220994 17.3796961,19.2132597 C17.6075967,19.2044199 17.8309392,19.1911602 18.0497238,19.1734807 C19.1801105,19.0850829 20.1828729,18.7712707 21.058011,18.2320442 C21.9331492,17.6928177 22.671547,16.9723757 23.2732044,16.0707182 C23.8383978,15.2044199 24.1209945,14.2585635 24.1209945,13.2331492 C24.1209945,12.7027624 24.0435083,12.1723757 23.8885359,11.641989 C23.7335635,11.1116022 23.519337,10.6121547 23.2458564,10.1436464 C22.9723757,9.67513812 22.6350829,9.24640884 22.2339779,8.85745856 C21.8328729,8.46850829 21.3861878,8.15027624 20.8939227,7.90276243 C20.4381215,7.65524862 19.9686464,7.48287293 19.4854972,7.38563536 C19.0023481,7.28839779 18.5055249,7.23977901 17.9950276,7.23977901 C17.2292818,7.23977901 16.4635359,7.33701657 15.6977901,7.53149171 C14.9320442,7.72596685 14.2027624,7.97348066 13.5099448,8.27403315 C13.4370166,8.23867403 13.3276243,8.22099448 13.181768,8.22099448 C12.9265193,8.22099448 12.6986188,8.30497238 12.4980663,8.47292818 C12.2975138,8.64088398 12.1516575,8.90165746 12.0604972,9.25524862 L12.0604972,9.25524862 L12.0604972,16.3624309 C11.7505525,16.4331492 11.5135359,16.561326 11.3494475,16.7469613 C11.1853591,16.9325967 11.1033149,17.1403315 11.1033149,17.3701657 C11.1033149,17.5646409 11.1671271,17.759116 11.2947514,17.9535912 C11.4223757,18.1480663 11.6229282,18.3160221 11.8964088,18.4574586 C11.969337,18.4928177 12.0331492,18.5104972 12.0878453,18.5104972 L12.0878453,18.5104972 L12.0878453,23.681768 C12.1425414,24.0707182 12.2792818,24.358011 12.4980663,24.5436464 C12.7168508,24.7292818 12.9538674,24.8220994 13.209116,24.8220994 Z M16.6276243,17.1049724 C16.2265193,17.1049724 15.8345304,17.0828729 15.4516575,17.038674 C15.0687845,16.9944751 14.6859116,16.9281768 14.3030387,16.839779 L14.3030387,16.839779 L14.3030387,10.3160221 C14.831768,10.0685083 15.4151934,9.8519337 16.0533149,9.66629834 C16.6914365,9.48066298 17.329558,9.3878453 17.9676796,9.3878453 C18.6422652,9.3878453 19.2621547,9.52928177 19.8273481,9.8121547 C20.4837017,10.1657459 20.9805249,10.638674 21.3178177,11.2309392 C21.6551105,11.8232044 21.8237569,12.4552486 21.8237569,13.1270718 C21.8237569,13.5867403 21.7325967,14.0464088 21.5502762,14.5060773 C21.3679558,14.9657459 21.0944751,15.3900552 20.7298343,15.7790055 C20.3287293,16.1856354 19.8683702,16.4729282 19.3487569,16.640884 C18.8291436,16.8088398 18.3049724,16.9370166 17.7762431,17.0254144 C17.3933702,17.078453 17.0104972,17.1049724 16.6276243,17.1049724 Z" id="P" fill="#FFFFFF" fill-rule="nonzero"></path>
        </g>
    </g>
</svg>